<svg width="152" height="100" viewBox="0 0 152 100" fill="none" xmlns="http://www.w3.org/2000/svg">
<g clip-path="url(#clip0_1_339)">
<path d="M13.775 0H137.987C145.825 0 152 6.19048 152 13.5714V86.4286C152 94.0476 145.825 100 138.225 100H13.775C6.175 100 0 93.8095 0 86.4286V13.5714C0 6.19048 6.175 0 13.775 0Z" fill="#DE2910"/>
<path d="M26.8375 12.381L29.6875 20.4762H38.2375L31.1125 25.7143L33.9625 33.8095L26.8375 28.8095L19.95 33.8095L22.5625 25.7143L15.675 20.4762H24.225L26.8375 12.381Z" fill="#FFDE00"/>
<path d="M46.075 4.52381L46.55 7.61905L49.6375 8.33334L46.7875 9.52381L47.025 12.8571L44.8875 10.4762L42.0375 11.9048L43.4625 9.04762L41.325 6.66667L44.4125 7.38095L46.075 4.52381Z" fill="#FFDE00"/>
<path d="M52.9625 14.7619L54.625 17.381L57.7125 16.9048L55.575 19.2857L57.2375 21.9048L54.3875 20.7143L52.25 23.0952L52.4875 19.7619L49.6375 18.5714L52.725 17.8571L52.9625 14.7619Z" fill="#FFDE00"/>
<path d="M52.0125 26.1905L52.9625 29.2857H56.05L53.4375 31.1905L54.3875 34.2857L52.0125 32.381L49.4 34.2857L50.35 31.1905L47.975 29.0476L51.0625 29.2857L52.0125 26.1905Z" fill="#FFDE00"/>
<path d="M45.8375 35.2381L45.3625 38.3333L48.45 39.5238L45.3625 40.4762L45.125 43.8095L43.4625 40.9524L40.375 41.9048L42.5125 39.2857L40.85 36.6667L43.7 37.619L45.8375 35.2381Z" fill="#FFDE00"/>
</g>
<defs>
<clipPath id="clip0_1_339">
<rect width="152" height="100" fill="white"/>
</clipPath>
</defs>
</svg>
