<svg width="158" height="99" viewBox="0 0 158 99" fill="none" xmlns="http://www.w3.org/2000/svg">
<g clip-path="url(#clip0_1_350)">
<path d="M14.3188 0H143.434C151.581 0 158 6.12857 158 13.4357V85.5643C158 93.1071 151.581 99 143.681 99H14.3188C6.41875 99 0 92.8714 0 85.5643V13.4357C0 6.12857 6.41875 0 14.3188 0Z" fill="white"/>
<path d="M92.5781 0H65.4219V99H92.5781V0Z" fill="#E8112D"/>
<path d="M158 36.5357H0V62.4643H158V36.5357Z" fill="#E8112D"/>
<path d="M133.313 18.6214C133.313 17.4429 133.313 16.0286 133.559 14.85C130.844 15.3214 128.128 15.5571 125.166 15.7929C125.413 13.2 125.659 10.3714 126.153 7.77857C124.919 8.01429 123.438 8.01429 122.203 8.01429C120.969 8.01429 119.488 8.01429 118.253 7.77857C118.747 10.3714 118.994 12.9643 119.241 15.7929C116.525 15.5571 113.563 15.3214 110.847 14.85C111.094 16.0286 111.094 17.2071 111.094 18.6214C111.094 20.0357 111.094 21.2143 110.847 22.3929C113.563 21.9214 116.278 21.6857 119.241 21.45C118.994 24.0429 118.747 26.8714 118.253 29.4643C119.488 29.2286 120.969 29.2286 122.203 29.2286C123.438 29.2286 124.919 29.2286 126.153 29.4643C125.659 26.8714 125.413 24.2786 125.166 21.45C127.881 21.6857 130.844 21.9214 133.559 22.3929C133.313 20.9786 133.313 19.8 133.313 18.6214Z" fill="#E8112D"/>
<path d="M45.1781 18.6214C45.1781 17.4429 45.1781 16.0286 45.425 14.85C42.7094 15.3214 39.9938 15.5571 37.0313 15.7929C37.2781 13.2 37.525 10.3714 38.0188 7.77857C36.7844 8.01429 35.3032 8.01429 34.0688 8.01429C32.8344 8.01429 31.3531 8.01429 30.1188 7.77857C30.6125 10.3714 30.8594 12.9643 31.1063 15.7929C28.3907 15.5571 25.4281 15.3214 22.7125 14.85C22.9594 16.0286 22.9594 17.4429 22.9594 18.6214C22.9594 19.8 22.9594 21.2143 22.7125 22.3929C25.4281 21.9214 28.1438 21.6857 31.1063 21.45C30.8594 24.0429 30.6125 26.8714 30.1188 29.4643C31.3531 29.2286 32.8344 29.2286 34.0688 29.2286C35.3032 29.2286 36.7844 29.2286 38.0188 29.4643C37.525 26.8714 37.2781 24.2786 37.0313 21.45C39.7469 21.6857 42.7094 21.9214 45.425 22.3929C45.1781 20.9786 45.1781 19.8 45.1781 18.6214Z" fill="#E8112D"/>
<path d="M133.313 81.3214C133.313 80.1429 133.313 78.7286 133.559 77.55C130.844 78.0214 128.128 78.2571 125.166 78.4929C125.413 75.9 125.659 73.0714 126.153 70.4786C124.919 70.7143 123.438 70.7143 122.203 70.7143C120.969 70.7143 119.488 70.7143 118.253 70.4786C118.747 73.0714 118.994 75.6643 119.241 78.4929C116.525 78.2571 113.563 78.0214 110.847 77.55C111.094 78.9643 111.094 80.1429 111.094 81.3214C111.094 82.5 111.094 83.9143 110.847 85.0929C113.563 84.6214 116.278 84.3857 119.241 84.15C118.994 86.7429 118.747 89.5714 118.253 92.1643C119.488 91.9286 120.969 91.9286 122.203 91.9286C123.438 91.9286 124.919 91.9286 126.153 92.1643C125.659 89.5714 125.413 86.9786 125.166 84.15C127.881 84.3857 130.844 84.6214 133.559 85.0929C133.313 83.9143 133.313 82.7357 133.313 81.3214Z" fill="#E8112D"/>
<path d="M45.1781 81.3214C45.1781 80.1429 45.1781 78.7286 45.425 77.55C42.7094 78.0214 39.9938 78.2571 37.0313 78.4929C37.2781 75.9 37.525 73.0714 38.0188 70.4786C36.7844 70.7143 35.3032 70.7143 34.0688 70.7143C32.8344 70.7143 31.3531 70.7143 30.1188 70.4786C30.6125 73.0714 30.8594 75.6643 31.1063 78.4929C28.3907 78.2571 25.4281 78.0214 22.7125 77.55C22.9594 78.7286 22.9594 80.1429 22.9594 81.3214C22.9594 82.5 22.9594 83.9143 22.7125 85.0929C25.4281 84.6214 28.1438 84.3857 31.1063 84.15C30.8594 86.7429 30.6125 89.5714 30.1188 92.1643C31.3531 91.9286 32.8344 91.9286 34.0688 91.9286C35.3032 91.9286 36.7844 91.9286 38.0188 92.1643C37.525 89.5714 37.0313 86.9786 37.0313 84.3857C39.7469 84.6214 42.7094 84.8571 45.425 85.3286C45.1781 83.9143 45.1781 82.7357 45.1781 81.3214Z" fill="#E8112D"/>
</g>
<defs>
<clipPath id="clip0_1_350">
<rect width="158" height="99" fill="white"/>
</clipPath>
</defs>
</svg>
