<svg width="156" height="102" viewBox="0 0 156 102" fill="none" xmlns="http://www.w3.org/2000/svg">
<g clip-path="url(#clip0_1_361)">
<path d="M14.1375 0H141.619C149.662 0 156 6.31429 156 13.8429V88.1571C156 95.9286 149.663 102 141.863 102H14.1375C6.3375 102 0 95.6857 0 88.1571V13.8429C0 6.31429 6.3375 0 14.1375 0Z" fill="#E30A17"/>
<path d="M64.1063 78.6857C79.4529 78.6857 91.8938 66.2904 91.8938 51C91.8938 35.7096 79.4529 23.3143 64.1063 23.3143C48.7596 23.3143 36.3188 35.7096 36.3188 51C36.3188 66.2904 48.7596 78.6857 64.1063 78.6857Z" fill="white"/>
<path d="M69.9563 74.0714C82.7451 74.0714 93.1125 63.742 93.1125 51C93.1125 38.258 82.7451 27.9286 69.9563 27.9286C57.1674 27.9286 46.8 38.258 46.8 51C46.8 63.742 57.1674 74.0714 69.9563 74.0714Z" fill="#E30A17"/>
<path d="M105.544 58.0429L97.9875 55.1286L92.8687 61.6857L93.3562 53.4286L85.5562 50.5143L93.6 48.3286L93.8437 40.3143L98.475 47.1143L106.275 44.9286L101.156 51.2429L105.544 58.0429Z" fill="white"/>
</g>
<defs>
<clipPath id="clip0_1_361">
<rect width="156" height="102" fill="white"/>
</clipPath>
</defs>
</svg>
