<svg width="162" height="106" viewBox="0 0 162 106" fill="none" xmlns="http://www.w3.org/2000/svg">
<g clip-path="url(#clip0_1_375)">
<path d="M14.6813 0H147.066C155.419 0 162 6.5619 162 14.3857V91.6143C162 99.6905 155.419 106 147.319 106H14.6813C6.58125 106 0 99.4381 0 91.6143V14.3857C0 6.5619 6.58125 0 14.6813 0Z" fill="#CE1126"/>
<path d="M0 91.6143C0 99.4381 6.58125 106 14.6813 106H147.319C155.419 106 162 99.6905 162 91.6143V35.3333H0V91.6143Z" fill="black"/>
<path d="M162 35.3333H0V70.6667H162V35.3333Z" fill="white"/>
<path d="M92.6437 64.1048L92.3906 57.5429L91.8844 44.9238C91.8844 41.8952 89.1 42.6524 87.3281 43.6619C86.3156 44.419 85.05 44.6714 84.0375 44.6714C83.5313 43.9143 83.025 42.1476 83.2781 40.8857C83.2781 39.6238 83.2781 38.8667 83.025 38.6143C83.025 38.3619 82.7719 38.3619 82.7719 38.3619C82.5188 38.1095 81.2531 37.8571 80.7469 37.6048C80.2406 37.6048 80.4938 37.8571 80.4938 37.8571C79.7344 37.6048 78.975 37.6048 78.7219 37.8571L78.4688 38.1095C78.4688 38.3619 78.4688 38.8667 78.4688 38.8667C78.975 38.3619 79.4813 38.8667 79.7344 39.3714C79.7344 39.3714 79.9875 39.6238 79.9875 39.8762C79.9875 40.381 79.9875 41.3905 79.7344 42.4C79.4813 43.4095 78.975 44.1667 78.4688 44.9238C77.2031 44.9238 76.1906 44.6714 75.1781 43.9143C73.4063 42.9048 70.875 42.1476 70.6219 45.1762L69.8625 64.3571L71.1281 63.3476L71.6344 63.0952L71.8875 62.8429L75.4313 59.5619L76.1906 58.8048L74.4188 63.0952C74.1656 63.0952 73.9125 62.8429 73.6594 62.8429C73.4063 62.8429 73.4063 62.8429 73.1531 63.0952C72.3938 63.0952 72.1406 63.8524 72.3938 64.3571C72.3938 64.3571 72.3938 64.3571 72.6469 64.3571C72.6469 64.6095 72.3938 64.6095 72.3938 64.8619C71.6344 64.6095 71.6344 65.8714 71.1281 65.619C71.6344 65.619 71.3813 66.6286 72.1406 66.881C72.1406 67.3857 72.1406 67.8905 72.9 67.8905C74.6719 68.3952 77.9625 68.6476 81.2531 68.6476C84.5437 68.6476 87.8344 68.3952 89.6063 67.8905C90.3656 67.6381 90.3656 67.3857 90.3656 66.881C91.125 66.6286 90.8719 65.619 91.3781 65.619C90.8719 65.8714 90.6187 64.6095 90.1125 64.8619C90.1125 64.6095 90.1125 64.6095 89.8594 64.3571C89.8594 64.3571 89.8594 64.3571 90.1125 64.3571C90.3656 63.8524 90.1125 63.0952 89.3531 63.0952C89.1 63.0952 89.1 62.8429 88.8469 62.8429C88.5937 62.8429 88.3406 63.0952 88.0875 63.0952L86.8219 58.3L87.8344 59.0571L88.3406 59.5619L89.3531 60.5714L90.6188 61.8333L91.125 62.3381L91.6313 62.5905L92.6437 64.1048ZM80.2406 64.1048C80.2406 64.1048 79.9875 63.8524 79.7344 63.8524C79.4813 63.8524 78.975 63.8524 78.7219 63.8524L78.975 62.8429L79.4813 63.3476L79.9875 62.8429L80.7469 57.2905L80.4938 63.0952L81 63.8524L81.5063 63.0952L81.2531 57.5429L82.0125 63.0952L82.5187 63.6L83.025 63.0952L83.2781 64.1048C83.025 64.1048 82.5188 64.1048 82.2656 64.1048C82.0125 64.1048 81.7594 64.3571 81.7594 64.6095C81.7594 64.6095 81.7594 64.6095 81.7594 64.3571C81.2531 64.3571 81.2531 64.6095 81.2531 65.1143H81H80.7469C80.7469 64.3571 80.4938 64.1048 80.2406 64.1048ZM72.9 63.8524C73.1531 63.8524 73.1531 63.8524 72.9 63.8524ZM88.8469 63.8524C89.1 63.8524 89.1 63.8524 88.8469 63.8524C89.1 63.8524 89.1 63.8524 89.1 63.8524H88.8469Z" fill="#FCD327"/>
</g>
<defs>
<clipPath id="clip0_1_375">
<rect width="162" height="106" fill="white"/>
</clipPath>
</defs>
</svg>
