<svg width="120" height="88" viewBox="0 0 120 88" fill="none" xmlns="http://www.w3.org/2000/svg">
<path d="M0 14.1774V27.3226H18.76L0 14.1774ZM15.5467 87.3613H43.3333V67.8921L15.5467 87.3613ZM76.6667 67.8954V87.3613H104.45L76.6667 67.8954ZM0 60.6774V73.8226L18.7667 60.6774H0ZM104.457 0.638657H76.6667V20.1079L104.457 0.638657ZM120 73.8259V60.6774H101.23L120 73.8259ZM120 27.3226V14.1774L101.237 27.3226H120ZM43.3333 0.638657H15.5467L43.3333 20.1079V0.638657Z" fill="#00247D"/>
<path d="M83.6082 60.8263L115.718 83.7134C117.287 82.069 118.414 80.0424 118.992 77.8276L95.1371 60.8263H83.6082ZM43.4705 60.8263H36.3918L4.28491 83.71C6.00746 85.4936 8.21603 86.7691 10.6924 87.3613L43.4705 63.9997V60.8263ZM76.5329 27.1737H83.6115L115.718 4.28996C113.966 2.48038 111.746 1.2142 109.314 0.638657L76.5329 24.0003V27.1737ZM36.3918 27.1737L4.28491 4.28996C2.71759 5.93549 1.58971 7.96161 1.00842 10.1758L24.863 27.1737H36.3918Z" fill="#CF1B2B"/>
<path d="M120 54.0065H70V87.3613H76.6667V67.8954L104.45 87.3613H106.667C108.438 87.3616 110.191 87.008 111.823 86.3213C113.456 85.6345 114.935 84.6284 116.173 83.3621L83.8 60.6774H95.4233L119.473 77.5283C119.783 76.4043 120 75.2402 120 74.0194V73.8259L101.23 60.6774H120V54.0065ZM0 54.0065V60.6774H18.7667L0 73.8226V74.0194C0 77.6584 1.46333 80.9505 3.82667 83.3588L36.1967 60.6774H43.3333V63.8228L10.2867 86.9744C11.2667 87.2079 12.28 87.3613 13.3333 87.3613H15.5467L43.3333 67.8921V87.3613H50V54.0065H0ZM120 13.9806C120.002 10.485 118.627 7.12936 116.173 4.64124L83.8033 27.3226H76.6667V24.1772L109.717 1.02224C108.718 0.777171 107.695 0.648456 106.667 0.638658H104.457L76.6667 20.1079V0.638658H70V33.9935H120V27.3226H101.237L120 14.1774V13.9806ZM43.3333 0.638658V20.1079L15.5467 0.638658H13.3333C11.5621 0.637886 9.80855 0.991596 8.17593 1.67898C6.5433 2.36636 5.06455 3.37354 3.82667 4.64124L36.1967 27.3226H24.5733L0.523333 10.475C0.192601 11.6148 0.016578 12.7939 0 13.9806L0 14.1774L18.76 27.3226H0V33.9935H50V0.638658H43.3333Z" fill="#EEEEEE"/>
<path d="M70 33.9935V0.638657H50V33.9935H0V54.0065H50V87.3613H70V54.0065H120V33.9935H70Z" fill="#CF1B2B"/>
</svg>
