<svg width="148" height="95" viewBox="0 0 148 95" fill="none" xmlns="http://www.w3.org/2000/svg">
<g clip-path="url(#clip0_1_228)">
<path d="M13.4125 0H134.356C141.987 0 148 5.88095 148 12.8929V82.1071C148 89.3452 141.988 95 134.588 95H13.4125C6.0125 95 0 89.119 0 82.1071V12.8929C0 5.88095 6.0125 0 13.4125 0Z" fill="#FF9933"/>
<path d="M0 82.1071C0 89.1191 6.0125 95 13.4125 95H134.588C141.988 95 148 89.3452 148 82.1071V31.6667H0V82.1071Z" fill="#138808"/>
<path d="M148 31.6667H0V63.3333H148V31.6667Z" fill="white"/>
<path d="M74 33.4762C65.9063 33.4762 59.6625 39.8095 59.6625 47.5C59.6625 55.1905 66.1375 61.5238 74 61.5238C81.8625 61.5238 88.3375 55.1905 88.3375 47.5C88.3375 39.8095 82.0938 33.4762 74 33.4762ZM87.1813 49.0833C87.1813 49.3095 86.7188 49.7619 86.4875 49.5357C86.2563 50.2143 86.2563 50.8929 86.025 51.5714C86.2563 51.7976 86.4875 52.0238 86.2563 52.4762C86.025 52.7024 85.7938 52.9286 85.3313 52.7024C85.1 53.3809 84.6375 53.8333 84.4063 54.5119C84.6375 54.7381 84.6375 55.1905 84.6375 55.4167C84.4063 55.6429 83.9438 55.6429 83.7125 55.6429C83.4813 55.869 83.25 56.0952 83.0188 56.3214C82.7875 56.5476 82.5563 56.7738 82.325 57C82.5563 57.2262 82.5563 57.6786 82.0938 57.9048C81.8625 58.131 81.4 58.1309 81.1688 57.6786C80.7063 58.1309 80.0125 58.3571 79.3188 58.5833C79.55 58.8095 79.3188 59.2619 79.0875 59.4881C78.8563 59.7143 78.3938 59.4881 78.1625 59.2619C77.4688 59.4881 76.775 59.7143 76.0813 59.7143C76.0813 59.9405 75.85 60.3929 75.6188 60.3929C75.3875 60.3929 74.925 60.1667 74.925 59.9405C74.6938 59.9405 74.2313 59.9405 74 59.9405C73.7688 59.9405 73.3063 59.9405 73.075 59.9405C73.075 60.1667 72.6125 60.619 72.3813 60.3929C72.15 60.3929 71.6875 59.9405 71.9188 59.7143C71.225 59.4881 70.5313 59.4881 69.8375 59.2619C69.6063 59.4881 69.375 59.7143 68.9125 59.4881C68.6813 59.2619 68.45 59.0357 68.6813 58.5833C67.9875 58.3571 67.525 57.9048 66.8313 57.6786C66.6 57.9048 66.1375 57.9048 65.9063 57.9048C65.675 57.6786 65.675 57.2262 65.675 57C65.4438 56.7738 65.2125 56.5476 64.9813 56.3214C64.75 56.0952 64.5188 55.869 64.2875 55.6429C64.0563 55.869 63.5938 55.869 63.3625 55.4167C63.1313 55.1905 63.1313 54.7381 63.5938 54.5119C63.1313 54.0595 62.9 53.3809 62.6688 52.7024C62.4375 52.9286 61.975 52.7024 61.7438 52.4762C61.5125 52.25 61.7438 51.7976 61.975 51.5714C61.7438 50.8929 61.5125 50.2143 61.5125 49.5357C61.2813 49.5357 60.8188 49.3095 60.8188 49.0833C60.8188 48.8571 61.05 48.4048 61.2813 48.4048C61.2813 48.1786 61.2813 47.7262 61.2813 47.5C61.2813 47.2738 61.2813 46.8214 61.2813 46.5952C61.05 46.5952 60.5875 46.1429 60.8188 45.9167C60.8188 45.6905 61.2813 45.2381 61.5125 45.4643C61.7438 44.7857 61.7438 44.1071 61.975 43.4286C61.7438 43.2024 61.5125 42.9762 61.7438 42.5238C61.975 42.2976 62.2063 42.0714 62.6688 42.2976C62.9 41.619 63.3625 41.1667 63.5938 40.4881C63.3625 40.2619 63.3625 39.8095 63.3625 39.5833C63.5938 39.3571 64.0563 39.3571 64.2875 39.3571C64.5188 39.1309 64.75 38.9048 64.9813 38.6786C65.2125 38.4524 65.4438 38.2262 65.675 38C65.4438 37.7738 65.4438 37.3214 65.9063 37.0952C66.1375 36.869 66.6 36.869 66.8313 37.3214C67.2938 36.869 67.9875 36.6429 68.6813 36.4167C68.45 36.1905 68.6813 35.7381 68.9125 35.5119C69.1438 35.2857 69.6063 35.5119 69.8375 35.7381C70.5313 35.5119 71.225 35.2857 71.9188 35.2857C71.9188 35.0595 72.15 34.6071 72.3813 34.6071C72.6125 34.6071 73.075 34.8333 73.075 35.0595C73.3063 35.0595 73.7688 35.0595 74 35.0595C74.2313 35.0595 74.6938 35.0595 74.925 35.0595C74.925 34.8333 75.3875 34.381 75.6188 34.6071C75.85 34.6071 76.3125 35.0595 76.0813 35.2857C76.775 35.5119 77.4688 35.5119 78.1625 35.7381C78.3938 35.5119 78.625 35.2857 79.0875 35.5119C79.3188 35.7381 79.55 35.9643 79.3188 36.4167C80.0125 36.6429 80.475 37.0952 81.1688 37.3214C81.4 37.0952 81.8625 37.0952 82.0938 37.0952C82.325 37.3214 82.325 37.7738 82.325 38C82.5563 38.2262 82.7875 38.4524 83.0188 38.6786C83.25 38.9048 83.4813 39.1309 83.7125 39.3571C83.9438 39.1309 84.4063 39.131 84.6375 39.5833C84.8688 39.8095 84.8688 40.2619 84.4063 40.4881C84.8688 40.9405 85.1 41.619 85.3313 42.2976C85.5625 42.0714 86.025 42.2976 86.2563 42.5238C86.4875 42.75 86.2563 43.2024 86.025 43.4286C86.2563 44.1071 86.4875 44.7857 86.4875 45.4643C86.7188 45.4643 87.1813 45.6905 87.1813 45.9167C87.1813 46.1429 86.95 46.5952 86.7188 46.5952C86.7188 46.8214 86.7188 47.2738 86.7188 47.5C86.7188 47.7262 86.7188 48.1786 86.7188 48.4048C86.95 48.6309 87.1813 48.8571 87.1813 49.0833Z" fill="#000088"/>
<path d="M75.6188 49.3095L75.3875 49.5357L77.0062 51.5714L80.475 58.131L76.0813 52.0238L75.1563 49.7619C74.925 49.7619 74.925 49.7619 74.6937 49.9881L75.6188 52.25L77.2375 59.4881L74.925 52.4762L74.4625 49.9881C74.2313 49.9881 74.2313 49.9881 74 49.9881L74.2312 52.4762L74 59.9405C74.2313 59.9405 74.6938 59.9405 74.925 59.9405C74.925 59.7143 75.1562 59.2619 75.3875 59.2619C75.6187 59.2619 76.0813 59.4881 76.0813 59.7143C76.775 59.4881 77.4687 59.4881 78.1625 59.2619C77.9312 59.0357 78.1625 58.5833 78.3938 58.3571C78.625 58.131 79.0875 58.3571 79.3187 58.5833C80.0125 58.3571 80.475 57.9048 81.1687 57.6786C80.9375 57.4524 80.9375 57 81.4 56.7738C81.6313 56.5476 82.0937 56.5476 82.325 56.7738C82.5562 56.5476 82.7875 56.3214 83.0188 56.0952L77.2375 51.119L75.6188 49.3095Z" fill="white"/>
<path d="M74.2312 45.0119C74.4625 45.0119 74.4625 45.0119 74.6937 45.0119L75.1563 42.5238L77.4688 35.5119L75.85 42.75L74.925 45.0119C75.1563 45.0119 75.1562 45.0119 75.3875 45.2381L76.3125 42.9762L80.475 36.869L77.0062 43.4286L75.3875 45.4643L75.6188 45.6905L77.2375 43.6548L83.0188 38.6786C82.7875 38.4524 82.5562 38.2262 82.325 38C82.0937 38.2262 81.6313 38.2262 81.4 38C81.1688 37.7738 81.1687 37.3214 81.1687 37.0952C80.7062 36.6429 80.0125 36.4167 79.3187 36.1905C79.0875 36.4167 78.8563 36.6429 78.3938 36.4167C78.1625 36.1905 77.9312 35.9643 78.1625 35.5119C77.4687 35.2857 76.775 35.0595 76.0813 35.0595C76.0813 35.2857 75.6187 35.5119 75.3875 35.5119C75.1562 35.5119 74.6938 35.0595 74.925 34.8333C74.6938 34.8333 74.2313 34.8333 74 34.8333L74.4625 42.2976L74.2312 45.0119Z" fill="white"/>
<path d="M72.15 49.0833L71.9188 48.8571L69.8375 50.4405L63.1312 53.8333L69.375 49.7619L71.6875 48.8571C71.6875 48.631 71.6875 48.631 71.4562 48.4048L69.1437 49.3095L61.7438 50.8929L68.9125 48.631L71.4562 48.1786C71.4562 47.9524 71.4562 47.9524 71.4562 47.7262L68.9125 47.9524L61.2812 47.5C61.2812 47.7262 61.2812 48.1786 61.2812 48.4048C61.5125 48.4048 61.975 48.631 61.975 48.8571C61.975 49.0833 61.7438 49.5357 61.5125 49.5357C61.7438 50.2143 61.7437 50.8929 61.975 51.5714C62.2062 51.3452 62.6688 51.5714 62.9 51.7976C63.1313 52.0238 62.9 52.4762 62.6688 52.7024C62.9 53.381 63.3625 53.8333 63.5938 54.5119C63.825 54.2857 64.2875 54.2857 64.5187 54.7381C64.75 54.9643 64.75 55.4167 64.5187 55.6429C64.75 55.869 64.9813 56.0952 65.2125 56.3214L70.3 50.6667L72.15 49.0833Z" fill="white"/>
<path d="M73.7688 49.9881C73.5375 49.9881 73.5375 49.9881 73.3063 49.9881L72.8438 52.4762L70.5313 59.4881L72.15 52.25L73.075 49.9881C72.8438 49.9881 72.8438 49.9881 72.6125 49.7619L71.6875 52.0238L67.525 58.131L70.9938 51.5714L72.6125 49.5357L72.3813 49.3095L70.7625 51.3452L64.9813 56.3214C65.2125 56.5476 65.4438 56.7738 65.675 57C65.9063 56.7738 66.3688 56.7738 66.6 57C66.8313 57.2262 66.8313 57.6786 66.8313 57.9048C67.2938 58.3571 67.9875 58.5833 68.6813 58.8095C68.9125 58.5833 69.1438 58.3571 69.6063 58.5833C69.8375 58.8095 70.0688 59.0357 69.8375 59.4881C70.5313 59.7143 71.225 59.9405 71.9188 59.9405C71.9188 59.7143 72.3813 59.4881 72.6125 59.4881C72.8438 59.4881 73.3063 59.9405 73.075 60.1667C73.3063 60.1667 73.7688 60.1667 74 60.1667L73.5375 52.7024L73.7688 49.9881Z" fill="white"/>
<path d="M72.3813 45.6905L72.6125 45.4643L70.9938 43.4286L67.525 36.869L71.6875 42.9762L72.6125 45.2381C72.8438 45.2381 72.8438 45.2381 73.075 45.0119L72.15 42.75L70.5313 35.5119L72.8438 42.5238L73.3063 45.0119C73.5375 45.0119 73.5375 45.0119 73.7688 45.0119L73.5375 42.5238L74 35.0595C73.7688 35.0595 73.3063 35.0595 73.075 35.0595C73.075 35.2857 72.8438 35.7381 72.6125 35.7381C72.3813 35.7381 71.9188 35.5119 71.9188 35.2857C71.225 35.5119 70.5313 35.5119 69.8375 35.7381C70.0688 35.9643 69.8375 36.4167 69.6063 36.6429C69.375 36.869 68.9125 36.6429 68.6813 36.4167C67.9875 36.6429 67.525 37.0952 66.8313 37.3214C67.0625 37.5476 67.0625 38 66.6 38.2262C66.3688 38.4524 65.9063 38.4524 65.675 38.2262C65.4438 38.4524 65.2125 38.6786 64.9813 38.9048L70.7625 43.881L72.3813 45.6905Z" fill="white"/>
<path d="M86.025 49.0833C86.025 48.8571 86.4875 48.4048 86.7188 48.631C86.7188 48.4048 86.7188 47.9524 86.7188 47.7262L79.0875 48.1786L76.5438 47.9524C76.5438 48.1786 76.5438 48.1786 76.5438 48.4048L79.0875 48.8571L86.2563 51.119L78.8563 49.5357L76.5438 48.631C76.5438 48.8571 76.5438 48.8571 76.3125 49.0833L78.625 49.9881L84.8688 54.0595L78.1625 50.6667L76.0813 49.0833L75.85 49.3095L77.9313 50.8929L83.0188 56.5476C83.25 56.3214 83.4813 56.0952 83.7125 55.869C83.4813 55.6429 83.4813 55.1905 83.7125 54.9643C83.9438 54.7381 84.4063 54.7381 84.6375 54.7381C85.1 54.2857 85.3313 53.6071 85.5625 52.9286C85.3313 52.7024 85.1 52.4762 85.3313 52.0238C85.5625 51.7976 85.7938 51.5714 86.2563 51.7976C86.4875 51.119 86.7188 50.4405 86.7188 49.7619C86.025 49.7619 85.7938 49.3095 86.025 49.0833Z" fill="white"/>
<path d="M71.4563 47.2738C71.4563 47.0476 71.4563 47.0476 71.4563 46.8214L68.9125 46.369L61.7438 44.1071L69.1438 45.6905L71.4563 46.5952C71.4563 46.369 71.4563 46.369 71.6875 46.1429L69.375 45.2381L63.1313 41.1667L69.8375 44.5595L71.9188 46.1429L72.15 45.9167L70.0688 44.3333L64.9813 38.6786C64.75 38.9048 64.5188 39.131 64.2875 39.3571C64.5188 39.5833 64.5188 40.0357 64.2875 40.2619C64.0563 40.4881 63.5938 40.4881 63.3625 40.4881C62.9 40.9405 62.6688 41.619 62.4375 42.2976C62.6688 42.5238 62.9 42.75 62.6688 43.2024C62.4375 43.4286 62.2063 43.6548 61.7438 43.4286C61.5125 44.1071 61.2813 44.7857 61.2813 45.4643C61.5125 45.4643 61.7438 45.9167 61.7438 46.1429C61.7438 46.369 61.2813 46.8214 61.05 46.5952C61.05 46.8214 61.05 47.2738 61.05 47.5L68.6813 47.0476L71.4563 47.2738Z" fill="white"/>
<path d="M75.85 45.9167L76.0813 46.1429L78.1625 44.5595L84.8688 41.1667L78.625 45.4643L76.3125 46.369C76.3125 46.5952 76.3125 46.5952 76.5438 46.8214L78.8563 45.9167L86.2563 44.3333L79.0875 46.5952L76.5438 47.0476C76.5438 47.2738 76.5438 47.2738 76.5438 47.5L79.0875 47.2738L86.7188 47.7262C86.7188 47.5 86.7188 47.0476 86.7188 46.8214C86.4875 46.8214 86.025 46.5952 86.025 46.369C86.025 46.1429 86.2563 45.6905 86.4875 45.6905C86.2563 45.0119 86.2563 44.3333 86.025 43.6548C85.7938 43.881 85.3313 43.6548 85.1 43.4286C84.8688 43.2024 85.1 42.75 85.3313 42.5238C85.1 41.8452 84.6375 41.3929 84.4063 40.7143C84.175 40.9405 83.7125 40.9405 83.4813 40.4881C83.25 40.2619 83.25 39.8095 83.4813 39.5833C83.25 39.3571 83.0188 39.131 82.7875 38.9048L77.7 44.5595L75.85 45.9167Z" fill="white"/>
<path d="M76.5438 47.2738C76.5438 47.0476 76.5438 47.0476 76.5438 46.8214L75.3875 47.0476L76.3125 46.5952C76.3125 46.369 76.3125 46.369 76.0813 46.1429L75.1563 46.5952L76.0813 45.9167L75.85 45.6905L74.925 46.369L75.6188 45.4643L75.3875 45.2381L74.6938 46.1429L75.1563 45.2381C74.925 45.2381 74.925 45.2381 74.6938 45.0119L74.2313 45.9167L74.4625 44.7857C74.2313 44.7857 74.2313 44.7857 74 44.7857V46.1429L73.7688 45.0119C73.5375 45.0119 73.5375 45.0119 73.3063 45.0119L73.5375 46.1429L73.3063 45.2381C73.075 45.2381 73.075 45.2381 72.8438 45.4643L73.3063 46.369L72.6125 45.4643L72.3813 45.6905L73.075 46.5952L72.15 45.9167L71.9188 46.1429L72.8438 46.8214L71.6875 46.369C71.6875 46.5952 71.6875 46.5952 71.4563 46.8214L72.3813 47.2738L71.225 47.0476C71.225 47.2738 71.225 47.2738 71.225 47.5L72.3813 47.7262L71.225 47.9524C71.225 48.1786 71.225 48.1786 71.225 48.4048L72.3813 48.1786H71.6875C71.6875 48.4048 71.6875 48.4048 71.9188 48.631L72.8438 48.1786L71.9188 48.8571L72.15 49.0833L73.075 48.4048L72.3813 49.3095L72.6125 49.5357L73.3063 48.631L72.8438 49.7619C73.075 49.7619 73.075 49.7619 73.3063 49.9881L73.7688 49.0833L73.5375 50.2143C73.7688 50.2143 73.7688 50.2143 74 50.2143L74.2313 49.0833L74.4625 50.2143C74.6938 50.2143 74.6938 50.2143 74.925 50.2143L74.6938 49.0833L75.1563 49.9881C75.3875 49.9881 75.3875 49.9881 75.6188 49.7619L75.1563 48.8571L75.85 49.7619L76.0813 49.5357L75.3875 48.631L76.3125 49.3095L76.5438 49.0833L75.6188 48.4048L76.5438 48.8571C76.5438 48.631 76.5438 48.631 76.775 48.4048L75.85 47.9524L77.0063 48.1786C77.0063 47.9524 77.0063 47.9524 77.0063 47.7262L75.3875 47.5L76.5438 47.2738Z" fill="#000088"/>
<path d="M86.7188 48.4048C86.7188 48.8571 86.7188 49.3095 86.4875 49.5357C86.7188 49.5357 87.1813 49.3095 87.1813 49.0833C87.1813 48.8571 86.95 48.631 86.7188 48.4048Z" fill="#000088"/>
<path d="M86.025 49.0833C86.025 49.3095 86.2563 49.7619 86.4875 49.7619C86.4875 49.3095 86.7188 48.8571 86.7188 48.631C86.2563 48.4048 86.025 48.631 86.025 49.0833Z" fill="#000088"/>
<path d="M74.2313 49.9881C74 49.9881 74 49.9881 74.2313 49.9881C74 49.9881 74 49.9881 74 49.9881L73.7688 52.4762L74.2313 59.9405L74.6938 52.4762L74.2313 49.9881Z" fill="#000088"/>
<path d="M73.7688 49.9881C74 49.9881 74 49.9881 73.7688 49.9881C74 49.9881 74 49.9881 74 49.9881V48.8571L73.7688 49.9881Z" fill="#000088"/>
<path d="M85.3313 52.7024C85.5625 52.9286 86.025 52.7024 86.2563 52.4762C86.4875 52.25 86.2563 51.7976 86.025 51.5714C85.7938 52.0238 85.5625 52.4762 85.3313 52.7024Z" fill="#000088"/>
<path d="M85.1 52.0238C84.8688 52.25 85.1 52.7024 85.3313 52.9286C85.5625 52.4762 85.5625 52.25 85.7938 51.7976C85.5625 51.5714 85.3313 51.7976 85.1 52.0238Z" fill="#000088"/>
<path d="M72.3813 52.25L70.7625 59.4881L73.075 52.4762L73.5375 49.9881H73.3063L72.3813 52.25Z" fill="#000088"/>
<path d="M73.3063 49.7619H73.5375L73.7688 48.631L73.3063 49.7619Z" fill="#000088"/>
<path d="M83.7125 55.4167C83.9438 55.6429 84.4063 55.6429 84.6375 55.1905C84.8688 54.9643 84.8688 54.5119 84.4063 54.2857C84.175 54.9643 83.9438 55.1905 83.7125 55.4167Z" fill="#000088"/>
<path d="M83.4813 54.7381C83.25 54.9643 83.25 55.4167 83.4813 55.6429C83.7125 55.4167 83.9438 54.9643 84.175 54.7381C84.175 54.2857 83.7125 54.2857 83.4813 54.7381Z" fill="#000088"/>
<path d="M70.9938 51.5714L67.525 58.131L71.6875 52.0238L72.6125 49.7619C72.6125 49.7619 72.3813 49.7619 72.3813 49.5357L70.9938 51.5714Z" fill="#000088"/>
<path d="M81.1688 57.6786C81.4 57.9048 81.8625 57.9048 82.0938 57.9048C82.325 57.6786 82.325 57.2262 82.325 57C81.8625 57.2262 81.6313 57.4524 81.1688 57.6786Z" fill="#000088"/>
<path d="M81.4 56.7738C81.1688 57 81.1688 57.4524 81.1688 57.6786C81.4 57.4524 81.8625 57.2262 82.0938 57C81.8625 56.7738 81.6313 56.5476 81.4 56.7738Z" fill="#000088"/>
<path d="M72.3813 49.3095C72.15 49.3095 72.15 49.3095 72.3813 49.3095L70.3 50.6667L65.2125 56.3214L70.9938 51.3452L72.3813 49.3095Z" fill="#000088"/>
<path d="M78.1625 59.2619C78.3938 59.4881 78.625 59.7143 79.0875 59.4881C79.3188 59.2619 79.55 59.0357 79.3188 58.5833C79.0875 58.8095 78.625 59.0357 78.1625 59.2619Z" fill="#000088"/>
<path d="M78.625 58.3571C78.3938 58.5833 78.1625 58.8095 78.3938 59.2619C78.8563 59.0357 79.0875 59.0357 79.55 58.8095C79.3188 58.3571 78.8563 58.131 78.625 58.3571Z" fill="#000088"/>
<path d="M69.375 49.5357L63.1313 53.6071L69.8375 50.2143L71.9188 48.631C71.9188 48.631 71.9188 48.4048 71.6875 48.4048L69.375 49.5357Z" fill="#000088"/>
<path d="M74.925 59.9405C74.925 60.1667 75.3875 60.619 75.6188 60.3929C75.85 60.3929 76.3125 59.9405 76.0813 59.7143C75.85 59.7143 75.3875 59.7143 74.925 59.9405Z" fill="#000088"/>
<path d="M75.6188 59.2619C75.3875 59.2619 74.925 59.7143 75.1563 59.9405C75.6188 59.9405 76.0813 59.9405 76.3125 59.7143C76.3125 59.2619 75.85 59.0357 75.6188 59.2619Z" fill="#000088"/>
<path d="M68.9125 48.4048L61.7438 50.6667L69.1438 49.0833L71.4563 48.1786V47.9524L68.9125 48.4048Z" fill="#000088"/>
<path d="M71.4563 47.9524V48.1786L72.3813 47.7262L71.4563 47.9524Z" fill="#000088"/>
<path d="M71.6875 59.7143C71.6875 59.9405 71.9188 60.3929 72.15 60.3929C72.3813 60.3929 72.8438 60.1667 72.8438 59.9405C72.6125 59.7143 72.15 59.7143 71.6875 59.7143Z" fill="#000088"/>
<path d="M72.3812 59.2619C72.15 59.2619 71.6875 59.4881 71.6875 59.7143C72.15 59.7143 72.6125 59.9405 72.8438 59.9405C73.075 59.4881 72.8437 59.2619 72.3812 59.2619Z" fill="#000088"/>
<path d="M71.4562 47.7262C71.4562 47.5 71.4562 47.5 71.4562 47.7262C71.4562 47.5 71.4562 47.5 71.4562 47.5L68.9125 47.2738L61.2812 47.5L68.9125 47.9524L71.4562 47.7262Z" fill="#000088"/>
<path d="M71.4563 47.2738C71.4563 47.5 71.4563 47.5 71.4563 47.2738C71.4563 47.5 71.4563 47.5 71.4563 47.5L72.6125 47.2738H71.4563Z" fill="#000088"/>
<path d="M68.6813 58.5833C68.45 58.8095 68.6812 59.2619 68.9125 59.4881C69.1437 59.7143 69.6063 59.4881 69.8375 59.2619C69.375 59.0357 68.9125 58.8095 68.6813 58.5833Z" fill="#000088"/>
<path d="M69.375 58.3571C69.1438 58.1309 68.6813 58.3571 68.45 58.5833C68.9125 58.8095 69.1438 58.8095 69.6063 59.0357C69.8375 58.8095 69.6063 58.5833 69.375 58.3571Z" fill="#000088"/>
<path d="M69.1438 45.9167L61.7438 44.3333L68.9125 46.5952L71.4563 47.0476V46.8214L69.1438 45.9167Z" fill="#000088"/>
<path d="M71.6875 46.8214V47.0476L72.8438 47.2738L71.6875 46.8214Z" fill="#000088"/>
<path d="M65.9063 57C65.675 57.2262 65.675 57.6786 66.1375 57.9048C66.3688 58.131 66.8313 58.131 67.0625 57.6786C66.3688 57.4524 66.1375 57.2262 65.9063 57Z" fill="#000088"/>
<path d="M66.6 56.7738C66.3688 56.5476 65.9063 56.5476 65.675 56.7738C65.9063 57 66.3688 57.2262 66.6 57.4524C67.0625 57.4524 67.0625 57 66.6 56.7738Z" fill="#000088"/>
<path d="M69.8375 44.5595L63.1313 41.1667L69.375 45.2381L71.6875 46.1429C71.6875 46.1429 71.6875 45.9167 71.9188 45.9167L69.8375 44.5595Z" fill="#000088"/>
<path d="M63.5938 54.5119C63.3625 54.7381 63.3625 55.1905 63.3625 55.4167C63.5938 55.6429 64.0563 55.6429 64.2875 55.6429C64.0563 55.1905 63.825 54.9643 63.5938 54.5119Z" fill="#000088"/>
<path d="M64.5187 54.7381C64.2875 54.5119 63.825 54.5119 63.5938 54.5119C63.825 54.7381 64.0562 55.1905 64.2875 55.4167C64.5187 55.1905 64.75 54.9643 64.5187 54.7381Z" fill="#000088"/>
<path d="M72.15 45.9167C72.15 45.6905 72.15 45.6905 72.15 45.9167L70.7625 43.881L64.9813 38.9048L70.0688 44.5595L72.15 45.9167Z" fill="#000088"/>
<path d="M61.975 51.5714C61.7437 51.7976 61.5125 52.0238 61.7438 52.4762C61.975 52.7024 62.2063 52.9286 62.6688 52.7024C62.4375 52.4762 62.2062 52.0238 61.975 51.5714Z" fill="#000088"/>
<path d="M62.9 52.0238C62.6688 51.7976 62.4375 51.5714 61.975 51.7976C62.2063 52.25 62.2063 52.4762 62.4375 52.9286C62.9 52.7024 63.1313 52.25 62.9 52.0238Z" fill="#000088"/>
<path d="M71.9188 42.9762L67.7563 36.869L71.225 43.4286L72.8438 45.4643C72.8438 45.4643 73.075 45.4643 73.075 45.2381L71.9188 42.9762Z" fill="#000088"/>
<path d="M61.2813 48.4048C61.05 48.4048 60.5875 48.8571 60.8188 49.0833C60.8188 49.3095 61.2813 49.7619 61.5125 49.5357C61.5125 49.3095 61.5125 48.8571 61.2813 48.4048Z" fill="#000088"/>
<path d="M61.975 49.0833C61.975 48.8571 61.5125 48.4048 61.2812 48.631C61.2812 49.0833 61.2813 49.5357 61.5125 49.7619C61.975 49.7619 62.2062 49.3095 61.975 49.0833Z" fill="#000088"/>
<path d="M73.075 42.5238L70.7625 35.5119L72.3813 42.75L73.3063 45.0119H73.5375L73.075 42.5238Z" fill="#000088"/>
<path d="M73.5375 45.0119H73.3063L73.7688 45.9167L73.5375 45.0119Z" fill="#000088"/>
<path d="M61.5125 45.2381C61.2813 45.2381 60.8188 45.4643 60.8188 45.6905C60.8188 45.9167 61.05 46.369 61.2813 46.369C61.5125 46.1429 61.5125 45.6905 61.5125 45.2381Z" fill="#000088"/>
<path d="M61.975 45.9167C61.975 45.6905 61.7438 45.2381 61.5125 45.2381C61.5125 45.6905 61.2812 46.1429 61.2812 46.369C61.7438 46.5952 61.975 46.369 61.975 45.9167Z" fill="#000088"/>
<path d="M73.7688 45.0119C74 45.0119 74 45.0119 73.7688 45.0119C74 45.0119 74 45.0119 74 45.0119L74.2313 42.5238L74 35.0595L73.5375 42.5238L73.7688 45.0119Z" fill="#000088"/>
<path d="M74.2312 45.0119C74 45.0119 74 45.0119 74.2312 45.0119C74 45.0119 74 45.0119 74 45.0119L74.2312 46.1429V45.0119Z" fill="#000088"/>
<path d="M62.6688 42.2976C62.4375 42.0714 61.975 42.2976 61.7438 42.5238C61.5125 42.75 61.7437 43.2024 61.975 43.4286C62.2062 42.9762 62.4375 42.5238 62.6688 42.2976Z" fill="#000088"/>
<path d="M62.9 42.9762C63.1313 42.75 62.9 42.2976 62.6688 42.0714C62.4375 42.5238 62.4375 42.75 62.2063 43.2024C62.4375 43.4286 62.6688 43.2024 62.9 42.9762Z" fill="#000088"/>
<path d="M75.6188 42.75L77.2375 35.5119L74.925 42.5238L74.4625 45.0119H74.6938L75.6188 42.75Z" fill="#000088"/>
<path d="M64.2875 39.5833C64.0563 39.3571 63.5938 39.3571 63.3625 39.8095C63.1313 40.0357 63.1313 40.4881 63.5938 40.7143C63.825 40.0357 64.0563 39.8095 64.2875 39.5833Z" fill="#000088"/>
<path d="M64.5188 40.2619C64.75 40.0357 64.75 39.5833 64.5188 39.3571C64.2875 39.5833 64.0563 40.0357 63.825 40.2619C63.825 40.7143 64.2875 40.7143 64.5188 40.2619Z" fill="#000088"/>
<path d="M77.0062 43.4286L80.475 36.869L76.0813 42.9762L75.1562 45.2381C75.1562 45.2381 75.3875 45.2381 75.3875 45.4643L77.0062 43.4286Z" fill="#000088"/>
<path d="M66.8313 37.3214C66.6 37.0952 66.1375 37.0952 65.9063 37.0952C65.675 37.3214 65.675 37.7738 65.675 38C66.1375 37.7738 66.3688 37.5476 66.8313 37.3214Z" fill="#000088"/>
<path d="M66.6 38.2262C66.8312 38 66.8312 37.5476 66.8312 37.3214C66.6 37.5476 66.1375 37.7738 65.9062 38C66.1375 38.2262 66.3687 38.4524 66.6 38.2262Z" fill="#000088"/>
<path d="M75.6188 45.6905C75.85 45.6905 75.85 45.6905 75.6188 45.6905L77.7 44.3333L82.7875 38.6786L77.0063 43.6548L75.6188 45.6905Z" fill="#000088"/>
<path d="M69.8375 35.7381C69.6063 35.5119 69.375 35.2857 68.9125 35.5119C68.6812 35.7381 68.45 35.9643 68.6813 36.4167C68.9125 36.1905 69.375 35.9643 69.8375 35.7381Z" fill="#000088"/>
<path d="M69.375 36.6429C69.6063 36.4167 69.8375 36.1905 69.6063 35.7381C69.1438 35.9643 68.9125 35.9643 68.45 36.1905C68.6813 36.6429 69.1438 36.869 69.375 36.6429Z" fill="#000088"/>
<path d="M78.625 45.4643L84.8688 41.3929L78.1625 44.7857L76.0813 46.369C76.0813 46.369 76.0813 46.5952 76.3125 46.5952L78.625 45.4643Z" fill="#000088"/>
<path d="M73.075 35.0595C73.075 34.8333 72.6125 34.381 72.3813 34.6071C72.15 34.6071 71.6875 35.0595 71.9188 35.2857C72.15 35.2857 72.6125 35.2857 73.075 35.0595Z" fill="#000088"/>
<path d="M72.3812 35.7381C72.6125 35.7381 73.075 35.2857 72.8438 35.0595C72.3813 35.0595 71.9188 35.0595 71.6875 35.2857C71.6875 35.7381 72.15 35.9643 72.3812 35.7381Z" fill="#000088"/>
<path d="M79.0875 46.5952L86.2563 44.3333L78.8563 45.9167L76.5438 46.8214V47.0476L79.0875 46.5952Z" fill="#000088"/>
<path d="M76.5438 47.0476V46.8214L75.6188 47.2738L76.5438 47.0476Z" fill="#000088"/>
<path d="M76.3125 35.2857C76.3125 35.0595 76.0812 34.6071 75.85 34.6071C75.6187 34.6071 75.1562 34.8333 75.1562 35.0595C75.3875 35.2857 75.85 35.2857 76.3125 35.2857Z" fill="#000088"/>
<path d="M75.6188 35.7381C75.85 35.7381 76.3125 35.5119 76.3125 35.2857C75.85 35.2857 75.3875 35.0595 75.1563 35.0595C74.925 35.5119 75.1563 35.7381 75.6188 35.7381Z" fill="#000088"/>
<path d="M76.5438 47.2738C76.5438 47.5 76.5438 47.5 76.5438 47.2738C76.5438 47.5 76.5438 47.5 76.5438 47.5L79.0875 47.7262L86.7188 47.2738L79.0875 46.8214L76.5438 47.2738Z" fill="#000088"/>
<path d="M76.5437 47.2738L75.3875 47.5L76.5437 47.7262C76.5437 47.5 76.5437 47.5 76.5437 47.2738C76.5437 47.5 76.5437 47.5 76.5437 47.2738Z" fill="#000088"/>
<path d="M79.3188 36.4167C79.55 36.1905 79.3188 35.7381 79.0875 35.5119C78.8563 35.2857 78.3938 35.5119 78.1625 35.7381C78.625 35.9643 79.0875 36.1905 79.3188 36.4167Z" fill="#000088"/>
<path d="M78.625 36.6429C78.8563 36.869 79.3188 36.6429 79.55 36.4167C79.0875 36.1905 78.8563 36.1905 78.3938 35.9643C78.1625 36.1905 78.3938 36.4167 78.625 36.6429Z" fill="#000088"/>
<path d="M78.8563 49.0833L86.2563 50.6667L79.0875 48.4048L76.5438 47.9524V48.1786L78.8563 49.0833Z" fill="#000088"/>
<path d="M76.3125 48.1786V47.9524L75.1562 47.7262L76.3125 48.1786Z" fill="#000088"/>
<path d="M82.0938 38C82.325 37.7738 82.325 37.3214 81.8625 37.0952C81.6313 36.869 81.1688 36.869 80.9375 37.3214C81.6313 37.5476 81.8625 37.7738 82.0938 38Z" fill="#000088"/>
<path d="M81.4 38.2262C81.6313 38.4524 82.0938 38.4524 82.325 38.2262C82.0938 38 81.6313 37.7738 81.4 37.5476C80.9375 37.5476 80.9375 38 81.4 38.2262Z" fill="#000088"/>
<path d="M78.1625 50.4405L84.8688 53.8333L78.625 49.5357L76.3125 48.631C76.3125 48.631 76.3125 48.8571 76.0813 48.8571L78.1625 50.4405Z" fill="#000088"/>
<path d="M84.4063 40.4881C84.6375 40.2619 84.6375 39.8095 84.6375 39.5833C84.4063 39.3571 83.9438 39.3571 83.7125 39.3571C83.9438 39.8095 84.175 40.0357 84.4063 40.4881Z" fill="#000088"/>
<path d="M83.4813 40.2619C83.7125 40.4881 84.175 40.4881 84.4063 40.4881C84.175 40.2619 83.9438 39.8095 83.7125 39.5833C83.4813 39.8095 83.25 40.0357 83.4813 40.2619Z" fill="#000088"/>
<path d="M75.85 49.0833C75.85 49.3095 75.85 49.3095 75.85 49.0833L77.2375 51.119L83.0188 56.0952L77.9313 50.4405L75.85 49.0833Z" fill="#000088"/>
<path d="M86.025 43.4286C86.2563 43.2024 86.4875 42.9762 86.2563 42.5238C86.025 42.2976 85.7938 42.0714 85.3313 42.2976C85.5625 42.5238 85.7938 42.9762 86.025 43.4286Z" fill="#000088"/>
<path d="M85.1 42.9762C85.3312 43.2024 85.5625 43.4286 86.025 43.2024C85.7938 42.75 85.7937 42.5238 85.5625 42.0714C85.1 42.2976 84.8687 42.75 85.1 42.9762Z" fill="#000088"/>
<path d="M76.0813 52.0238L80.2438 58.131L76.775 51.5714L75.1563 49.5357C75.1563 49.5357 74.925 49.5357 74.925 49.7619L76.0813 52.0238Z" fill="#000088"/>
<path d="M86.7188 46.5952C86.95 46.5952 87.4125 46.1429 87.1813 45.9167C87.1813 45.6905 86.7188 45.2381 86.4875 45.4643C86.4875 45.6905 86.4875 46.1429 86.7188 46.5952Z" fill="#000088"/>
<path d="M86.025 45.9167C86.025 46.1429 86.4875 46.5952 86.7188 46.369C86.7188 45.9167 86.7188 45.4643 86.4875 45.2381C86.025 45.2381 85.7938 45.6905 86.025 45.9167Z" fill="#000088"/>
<path d="M74.925 52.4762L77.2375 59.4881L75.6188 52.25L74.6938 49.9881H74.4625L74.925 52.4762Z" fill="#000088"/>
</g>
<defs>
<clipPath id="clip0_1_228">
<rect width="148" height="95" fill="white"/>
</clipPath>
</defs>
</svg>
