<svg width="150" height="98" viewBox="0 0 150 98" fill="none" xmlns="http://www.w3.org/2000/svg">
<g clip-path="url(#clip0_1_201)">
<path d="M13.5938 0H136.172C143.906 0 150 6.06667 150 13.3V84.7C150 92.1667 143.906 98 136.406 98H13.5938C6.09375 98 0 91.9333 0 84.7V13.3C0 6.06667 6.09375 0 13.5938 0Z" fill="white"/>
<path d="M41.375 11.4373L27.2042 32.5978L30.7142 34.9276L44.885 13.767L41.375 11.4373Z" fill="black"/>
<path d="M46.583 14.8399L32.4121 36.0029L35.9226 38.3327L50.0934 17.1696L46.583 14.8399Z" fill="black"/>
<path d="M36.0832 7.81959L21.9124 28.9801L25.4224 31.3099L39.5932 10.1493L36.0832 7.81959Z" fill="black"/>
<path d="M124.528 66.4992L118.027 76.2058L121.537 78.5356L128.038 68.8289L124.528 66.4992Z" fill="black"/>
<path d="M111.684 74.3909L105.183 84.0976L108.693 86.4273L115.194 76.7207L111.684 74.3909Z" fill="black"/>
<path d="M119.109 63.0714L112.608 72.778L116.118 75.1078L122.619 65.4011L119.109 63.0714Z" fill="black"/>
<path d="M106.262 70.9659L99.7621 80.6726L103.272 83.0023L109.772 73.2957L106.262 70.9659Z" fill="black"/>
<path d="M116.778 77.987L110.277 87.6948L113.788 90.0246L120.288 80.3167L116.778 77.987Z" fill="black"/>
<path d="M114.057 59.4734L107.556 69.1812L111.067 71.5109L117.567 61.8031L114.057 59.4734Z" fill="black"/>
<path d="M96.2651 63.1067C104.091 51.4187 100.919 35.6273 89.1784 27.8358C77.4381 20.0442 61.5763 23.2029 53.75 34.891C45.9236 46.579 49.0964 62.3703 60.8367 70.1619C72.5769 77.9535 88.4387 74.7947 96.2651 63.1067Z" fill="#CE1126"/>
<path d="M53.9062 35C49.9219 40.8333 51.5625 48.7667 57.4219 52.5C63.2812 56.4667 71.25 54.8333 75 49C78.9844 43.1667 86.7187 41.5333 92.5781 45.5C98.4375 49.4667 100.078 57.1667 96.0937 63C88.3594 74.6667 72.6562 77.9333 60.9375 70C49.2187 62.0667 45.9375 46.6667 53.9062 35Z" fill="#003F87"/>
<path d="M121.565 19.415L118.055 21.7448L124.556 31.4514L128.066 29.1217L121.565 19.415Z" fill="black"/>
<path d="M111.037 26.397L107.527 28.7268L114.027 38.4346L117.538 36.1049L111.037 26.397Z" fill="black"/>
<path d="M103.272 14.9762L99.7616 17.306L106.262 27.0126L109.772 24.6829L103.272 14.9762Z" fill="black"/>
<path d="M113.82 7.99792L110.31 10.3277L116.81 20.0355L120.321 17.7058L113.82 7.99792Z" fill="black"/>
<path d="M116.719 23.8L114.375 20.3L108.516 11.4333L105 13.7667L110.859 22.6333L112.734 25.2L119.062 35L122.813 32.6667L116.719 23.8Z" fill="black"/>
<path d="M39.6094 72.5667L40.3125 73.2667L46.6406 83.0667L50.1562 80.7333L36.0938 59.5L32.5781 61.8333L39.6094 72.5667Z" fill="black"/>
<path d="M38.3158 74.5012L34.8054 76.8309L41.3058 86.5387L44.8162 84.209L38.3158 74.5012Z" fill="black"/>
<path d="M33.2813 77.9333L32.1094 76.3L25.5469 66.5L22.0312 68.8333L36.0938 90.0667L39.6094 87.7333L33.2813 77.9333Z" fill="black"/>
<path d="M30.8568 63.0325L27.3468 65.3622L33.8472 75.0689L37.3572 72.7391L30.8568 63.0325Z" fill="black"/>
</g>
<defs>
<clipPath id="clip0_1_201">
<rect width="150" height="98" fill="white"/>
</clipPath>
</defs>
</svg>
