<svg width="94" height="94" viewBox="0 0 94 94" fill="none" xmlns="http://www.w3.org/2000/svg">
<path d="M91.4172 78.9577L69.8522 57.391C66.639 62.3882 62.3867 66.6385 57.3894 69.8519L78.9561 91.4186C82.3991 94.8608 87.9814 94.8608 91.417 91.4186C94.8602 87.982 94.8601 82.3997 91.4172 78.9577Z" fill="white"/>
<path d="M70.4997 35.25C70.4997 15.7837 54.7167 0 35.25 0C15.7837 0 0 15.7837 0 35.25C0 54.7163 15.7837 70.4993 35.25 70.4993C54.7167 70.4993 70.4997 54.7163 70.4997 35.25ZM35.25 61.6865C20.6715 61.6865 8.81275 49.8287 8.81275 35.2502C8.81275 20.6717 20.6715 8.81294 35.25 8.81294C49.8282 8.81294 61.6879 20.6717 61.6879 35.2502C61.6879 49.8287 49.8282 61.6865 35.25 61.6865Z" fill="white"/>
<path d="M14.6878 35.25H20.5621C20.5621 27.1515 27.1516 20.5626 35.2498 20.5626V14.6877C23.9134 14.6877 14.6878 23.9133 14.6878 35.25Z" fill="white"/>
</svg>
